<?xml version="1.0" encoding="UTF-8" ?>
<svg height="140" width="190" xmlns="http://www.w3.org/2000/svg">
    <g fill="#080">
        <rect x="10" y="10" width="120" height="120" />
        <rect x="82.5" y="-80" width="95" height="95" transform="rotate(45)" />
    </g>
    <path transform="scale(10)" fill="#444" d="M14.6,0.8 C14.3,0.3 13.7,0 13,0 L2,0 C0.9,0 0,0.9 0,2 L0,12 C0,13.1 0.9,14 2,14 L13,14 C13.7,14 14.3,13.7 14.6,13.2 L19,7 L14.6,0.8 L14.6,0.8 Z M13,12 L2,12 L2,2 L13,2 L16.5,7 L13,12 L13,12 Z" />
</svg>
