<?xml version="1.0" encoding="UTF-8" ?>
<svg xmlns="http://www.w3.org/2000/svg" height="24" width="24" version="1.1">
    <g transform="translate(0 -1028.4)">
        <path d="m22 12c0 5.523-4.477 10-10 10-5.5228 0-10-4.477-10-10 0-5.5228 4.4772-10 10-10 5.523 0 10 4.4772 10 10z" transform="translate(0 1029.4)" fill="#6b6b6b"/>
        <path d="m22 12c0 5.523-4.477 10-10 10-5.5228 0-10-4.477-10-10 0-5.5228 4.4772-10 10-10 5.523 0 10 4.4772 10 10z" transform="translate(0 1028.4)" fill="#7d7d7d"/>
        <path d="m16 1037.4-6 6-2.5-2.5-2.125 2.1 2.5 2.5 2 2 0.125 0.1 8.125-8.1-2.125-2.1z" fill="#6b6b6b"/>
        <path d="m16 1036.4-6 6-2.5-2.5-2.125 2.1 2.5 2.5 2 2 0.125 0.1 8.125-8.1-2.125-2.1z" fill="#eff0f0"/>
    </g>
</svg>
