<?xml version="1.0" encoding="UTF-8"?>
<svg version="1.1" width="402" height="500" xml:space="preserve" id="android">
    <g x="0" y="0" transform="scale(20) translate(0 -3)">
        <path d="M15.95 10.78c0.03-0.25.05-0.51.05-0.78s-0.02-0.53-0.06-0.78l1.69-1.32c0.15-0.12.19-0.34.1-0.51l-1.6-2.77c-0.1-0.18-0.31-0.24-0.49-0.18l-1.99.8c-0.42-0.32-0.86-0.58-1.35-0.78L12 2.34c-0.03-0.2-0.2-0.34-0.4-0.34H8.4c-0.2 0-0.36.14-0.39.34l-0.3 2.12c-0.49.2-0.94.47-1.35.78l-1.99-0.8c-0.18-0.07-0.39 0-0.49.18l-1.6 2.77c-0.1.18-0.06.39.1.51l1.69 1.32c-0.04.25-0.07.52-0.07.78s0.02.53.06.78L2.37 12.1c-0.15.12-0.19.34-0.1.51l1.6 2.77c0.1.18.31.24.49.18l1.99-0.8c0.42.32.86.58 1.35.78l0.3 2.12c0.04.2.2.34.4.34h3.2c0.2 0 .37-0.14.39-0.34l0.3-2.12c0.49-0.2.94-0.47 1.35-0.78l1.99.8c0.18.07.39 0 .49-0.18l1.6-2.77c0.1-0.18.06-0.39-0.1-0.51l-1.67-1.32zM10 13c-1.65 0-3-1.35-3-3s1.35-3 3-3 3 1.35 3 3-1.35 3-3 3z" />
    </g>
    <g id="android-androidIllustration" transform="translate(0 18)">
        <path id="android-bezier2" stroke="none" fill="rgb(255, 255, 255)" d="M 363.51,334.74 C 384.48,334.75 401.52,317.86 401.52,297.1 L 401.53,181.85 C 401.54,161.11 384.5,144.22 363.56,144.22 353.38,144.21 343.85,148.12 336.66,155.23 329.47,162.34 325.52,171.8 325.52,181.84 L 325.52,297.1 C 325.5,307.13 329.44,316.59 336.62,323.69 343.79,330.82 353.35,334.74 363.51,334.74 Z M 363.51,334.74" />
        <path id="android-bezier6" stroke="none" fill="rgb(255, 255, 255)" d="M 363.54,154.34 C 378.89,154.33 391.33,166.67 391.33,181.85 L 391.31,297.09 C 391.3,312.33 378.85,324.63 363.52,324.64 348.16,324.62 335.72,312.32 335.74,297.1 L 335.73,181.84 C 335.74,166.66 348.19,154.32 363.54,154.34 Z M 363.54,154.34" />
        <path id="android-bezier7" stroke="none" fill="rgb(255, 255, 255)" d="M 65.45,160.04 L 75.66,160.04 325.98,160.07 336.2,160.07 336.21,149.95 C 336.23,108.41 313.38,69.78 275.95,46.95 L 290.5,20.65 C 292.28,17.56 292.73,13.66 291.69,10.09 290.64,6.52 288.15,3.46 284.82,1.7 282.9,0.62 280.54,0.02 278.16,0.02 273.01,0.02 268.28,2.79 265.8,7.27 L 250.57,34.74 C 234.8,29.02 218.16,26.1 200.97,26.1 183.54,26.1 166.81,29.02 150.98,34.77 L 135.78,7.25 C 133.33,2.78 128.57,-0 123.43,0 121.11,-0 118.8,0.56 116.76,1.64 113.34,3.5 110.95,6.47 109.9,10.06 108.86,13.63 109.28,17.41 111.11,20.68 L 125.65,46.97 C 88.28,69.85 65.45,108.45 65.46,149.92 L 65.45,160.04 Z M 65.45,160.04" />
        <path id="android-bezier8" stroke="none" fill="rgb(255, 255, 255)" d="M 143.8,105.03 C 149.58,105.04 154.3,100.4 154.29,94.64 154.29,88.94 149.59,84.25 143.79,84.23 138.04,84.24 133.32,88.94 133.32,94.65 133.32,100.38 138.01,105.03 143.8,105.03 Z M 257.78,105.05 C 263.54,105.04 268.24,100.4 268.24,94.67 268.24,88.96 263.54,84.26 257.77,84.26 251.96,84.26 247.27,88.96 247.26,94.66 247.26,100.39 251.96,105.05 257.78,105.05 Z M 139.45,50.85 L 120.05,15.77 C 119.02,13.94 119.69,11.59 121.56,10.58 123.46,9.57 125.8,10.26 126.8,12.1 L 146.4,47.53 C 162.88,40.28 181.33,36.2 200.84,36.22 220.31,36.21 238.73,40.26 255.17,47.49 L 274.78,12.14 C 275.79,10.27 278.16,9.59 280,10.62 281.89,11.62 282.57,13.96 281.53,15.79 L 262.12,50.83 C 300.25,70.31 326.01,107.39 325.99,149.96 L 75.67,149.93 C 75.66,107.37 101.38,70.37 139.45,50.85 Z M 139.45,50.85" />
        <path id="android-bezier9" stroke="none" fill="rgb(255, 255, 255)" d="M 247.29,466.09 C 268.24,466.09 285.28,449.22 285.29,428.46 L 285.3,377.6 295.28,377.6 C 305.95,377.61 315.96,373.5 323.48,366.05 331.02,358.6 335.17,348.68 335.15,338.11 L 335.19,159.55 335.19,149.42 324.97,149.42 76.53,149.38 66.31,149.38 66.31,159.5 66.28,338.08 C 66.28,359.86 84.17,377.58 106.15,377.57 L 116.2,377.59 116.19,428.43 C 116.19,449.18 133.23,466.07 154.17,466.07 164.32,466.09 173.85,462.18 181.05,455.06 188.25,447.95 192.21,438.5 192.2,428.45 L 192.21,377.58 209.28,377.58 209.28,428.44 C 209.29,449.2 226.33,466.1 247.29,466.09 Z M 247.29,466.09" />
        <path id="android-bezier10" stroke="none" fill="rgb(255, 255, 255)" d="M 324.92,338.11 C 324.94,354.37 311.68,367.5 295.28,367.49 L 275.09,367.49 275.06,428.47 C 275.07,443.65 262.61,455.99 247.29,455.99 231.94,455.99 219.5,443.64 219.51,428.45 L 219.51,367.48 181.99,367.48 182,428.45 C 181.98,443.63 169.51,455.99 154.2,455.96 138.84,455.97 126.4,443.62 126.4,428.43 L 126.42,367.47 106.15,367.46 C 89.8,367.47 76.5,354.31 76.5,338.08 L 76.53,159.49 324.97,159.53 324.92,338.11 Z M 324.92,338.11" />
        <path id="android-bezier11" stroke="none" fill="rgb(255, 255, 255)" d="M 37.99,334.7 C 58.94,334.7 75.99,317.83 75.99,297.07 L 76.02,181.83 C 76.01,161.07 58.99,144.18 38.04,144.18 17.06,144.18 0.01,161.06 0.01,181.81 L 0,297.05 C -0,317.8 17.03,334.7 37.99,334.7 Z M 37.99,334.7" />
        <path id="android-bezier12" stroke="none" fill="rgb(255, 255, 255)" d="M 38.02,154.3 C 53.36,154.29 65.8,166.63 65.8,181.83 L 65.79,297.07 C 65.78,312.28 53.35,324.59 37.99,324.58 22.65,324.58 10.22,312.28 10.21,297.06 L 10.24,181.82 C 10.24,166.62 22.67,154.3 38.02,154.3 Z M 38.02,154.3" />
        <path id="android-bezier13" stroke="none" fill="rgb(148, 187, 44)" d="M 10.23,181.81 C 10.23,166.61 22.67,154.3 38.02,154.3 53.36,154.29 65.8,166.63 65.8,181.83 L 65.78,297.07 C 65.78,312.28 53.35,324.58 37.99,324.58 22.64,324.58 10.21,312.28 10.21,297.06 L 10.23,181.81 Z M 324.97,159.53 L 324.93,338.12 C 324.94,354.37 311.67,367.48 295.27,367.48 L 275.08,367.49 275.06,428.47 C 275.07,443.65 262.6,455.99 247.29,455.99 231.94,455.99 219.5,443.64 219.49,428.45 L 219.51,367.48 181.99,367.48 181.98,428.45 C 181.98,443.62 169.51,455.98 154.2,455.96 138.84,455.97 126.4,443.62 126.4,428.43 L 126.42,367.47 106.16,367.45 C 89.8,367.46 76.5,354.33 76.49,338.08 L 76.52,159.49 324.97,159.53 Z M 143.8,105.03 C 149.58,105.04 154.29,100.39 154.29,94.64 154.27,88.95 149.59,84.25 143.79,84.23 138.04,84.24 133.32,88.94 133.32,94.65 133.31,100.38 138.01,105.03 143.8,105.03 Z M 257.78,105.05 C 263.54,105.04 268.24,100.4 268.24,94.67 268.24,88.96 263.55,84.26 257.77,84.26 251.96,84.26 247.27,88.96 247.26,94.66 247.26,100.39 251.96,105.05 257.78,105.05 Z M 139.45,50.85 L 120.05,15.77 C 119.02,13.94 119.69,11.61 121.57,10.57 123.46,9.58 125.8,10.25 126.8,12.1 L 146.39,47.54 C 162.88,40.28 181.32,36.2 200.84,36.22 220.31,36.21 238.75,40.27 255.17,47.49 L 274.78,12.14 C 275.8,10.27 278.15,9.6 280,10.62 281.89,11.62 282.58,13.96 281.53,15.79 L 262.12,50.84 C 300.25,70.31 326.01,107.39 325.99,149.96 L 75.67,149.93 C 75.66,107.37 101.38,70.37 139.45,50.85 Z M 363.54,154.34 C 378.89,154.33 391.32,166.67 391.33,181.85 L 391.31,297.09 C 391.3,312.33 378.86,324.62 363.51,324.62 348.16,324.62 335.72,312.32 335.74,297.09 L 335.73,181.84 C 335.74,166.66 348.19,154.33 363.54,154.34 Z M 363.54,154.34" />
    </g>
</svg>
